<?xml version="1.0" encoding="UTF-8"?>
<svg xmlns="http://www.w3.org/2000/svg" xmlns:xlink="http://www.w3.org/1999/xlink" width="481.9pt" height="118.9pt" viewBox="0 0 481.9 118.9" version="1.1">
<defs>
<clipPath id="clip1">
  <path d="M 0 0 L 119 0 L 119 118.898438 L 0 118.898438 Z M 0 0 "/>
</clipPath>
<clipPath id="clip2">
  <path d="M 346 21 L 481.898438 21 L 481.898438 54 L 346 54 Z M 346 21 "/>
</clipPath>
<clipPath id="clip3">
  <path d="M 130 66 L 481.898438 66 L 481.898438 69 L 130 69 Z M 130 66 "/>
</clipPath>
<clipPath id="clip4">
  <path d="M 164 80 L 481.898438 80 L 481.898438 97 L 164 97 Z M 164 80 "/>
</clipPath>
</defs>
<g id="surface1">
<g clip-path="url(#clip1)" clip-rule="nonzero">
<path style=" stroke:none;fill-rule:evenodd;fill:rgb(0%,0%,0%);fill-opacity:1;" d="M 0.0703125 59.417969 L 59.515625 -0.0273438 L 118.964844 59.417969 L 59.515625 118.859375 Z M 5.519531 59.417969 L 59.515625 113.414063 L 113.511719 59.417969 L 59.515625 5.417969 Z M 68.554688 33.644531 C 79.191406 37.375 86.820313 47.503906 86.820313 59.417969 C 86.820313 71.328125 79.191406 81.457031 68.554688 85.1875 L 68.554688 83.566406 C 78.335938 79.90625 85.296875 70.476563 85.296875 59.417969 C 85.296875 49.355469 79.535156 40.644531 71.132813 36.398438 L 71.132813 38.117188 C 78.664063 42.234375 83.773438 50.226563 83.773438 59.417969 C 83.773438 69.621094 77.472656 78.351563 68.554688 81.933594 L 68.554688 80.28125 C 76.613281 76.789063 82.253906 68.761719 82.253906 59.417969 C 82.253906 51.105469 77.789063 43.835938 71.132813 39.871094 L 71.132813 41.667969 C 76.910156 45.457031 80.726563 51.988281 80.726563 59.417969 C 80.726563 67.898438 75.746094 75.21875 68.554688 78.609375 L 68.554688 76.910156 C 74.878906 73.636719 79.207031 67.03125 79.207031 59.417969 C 79.207031 52.886719 76.027344 47.101563 71.132813 43.519531 L 71.132813 73.171875 L 70.398438 73.628906 L 70.015625 73.628906 L 68.554688 72.066406 L 65.347656 68.378906 L 65.347656 63.875 L 68.554688 67.558594 Z M 53.6875 54.972656 L 50.480469 51.285156 L 50.480469 85.1875 C 39.839844 81.457031 32.214844 71.328125 32.214844 59.417969 C 32.214844 47.503906 39.839844 37.375 50.480469 33.644531 L 50.480469 35.265625 C 40.703125 38.925781 33.734375 48.359375 33.734375 59.417969 C 33.734375 69.476563 39.496094 78.1875 47.902344 82.4375 L 47.902344 80.714844 C 40.367188 76.597656 35.257813 68.605469 35.257813 59.417969 C 35.257813 49.214844 41.558594 40.484375 50.480469 36.898438 L 50.480469 38.550781 C 42.421875 42.046875 36.78125 50.070313 36.78125 59.417969 C 36.78125 67.726563 41.242188 74.996094 47.902344 78.960938 L 47.902344 77.164063 C 42.121094 73.375 38.304688 66.84375 38.304688 59.417969 C 38.304688 50.933594 43.285156 43.617188 50.480469 40.222656 L 50.480469 41.921875 C 44.152344 45.195313 39.832031 51.800781 39.832031 59.417969 C 39.832031 65.945313 43.007813 71.730469 47.902344 75.3125 L 47.902344 45.660156 L 48.636719 45.203125 L 49.015625 45.203125 L 50.480469 46.765625 L 50.480469 46.796875 L 53.6875 50.480469 Z M 60.628906 72.066406 L 59.480469 68.226563 L 58.359375 72.066406 Z M 63.660156 76.167969 L 61.855469 76.167969 L 61.152344 73.820313 L 57.851563 73.820313 L 57.167969 76.167969 L 55.402344 76.167969 L 58.605469 65.8125 L 60.390625 65.8125 Z M 55.371094 64.53125 L 55.371094 54.171875 L 56.964844 54.171875 L 59.519531 57.496094 L 62.058594 54.171875 L 63.652344 54.171875 L 63.652344 64.53125 L 62.058594 64.53125 L 62.058594 57.121094 L 59.519531 60.15625 L 56.964844 57.121094 L 56.964844 64.53125 Z M 55.402344 42.664063 L 57.488281 42.664063 L 57.488281 48.171875 C 57.488281 48.980469 57.519531 49.574219 57.578125 49.945313 C 57.632813 50.3125 57.835938 50.621094 58.171875 50.871094 C 58.511719 51.125 58.984375 51.25 59.589844 51.25 C 60.355469 51.25 60.878906 51.074219 61.15625 50.71875 C 61.433594 50.367188 61.578125 49.554688 61.578125 48.285156 L 61.578125 42.664063 L 63.660156 42.664063 L 63.660156 48.015625 C 63.660156 49.265625 63.589844 50.203125 63.429688 50.820313 C 63.273438 51.445313 62.890625 51.964844 62.285156 52.386719 C 61.683594 52.808594 60.804688 53.019531 59.65625 53.019531 C 58.535156 53.019531 57.660156 52.84375 57.027344 52.480469 C 56.390625 52.125 55.964844 51.660156 55.738281 51.082031 C 55.511719 50.507813 55.402344 49.511719 55.402344 48.09375 Z M 55.402344 41.382813 L 55.402344 31.023438 L 63.660156 31.023438 L 63.660156 32.777344 L 57.792969 32.777344 L 57.792969 35.0625 L 63.660156 35.0625 L 63.660156 36.8125 L 57.792969 36.8125 L 57.792969 39.628906 L 63.660156 39.628906 L 63.660156 41.382813 Z M 55.402344 29.742188 L 55.402344 19.382813 L 57.425781 19.382813 L 61.71875 26.300781 L 61.71875 19.382813 L 63.660156 19.382813 L 63.660156 29.742188 L 61.5625 29.742188 L 57.34375 22.988281 L 57.34375 29.742188 Z M 55.402344 87.808594 L 55.402344 77.453125 L 57.425781 77.453125 L 61.71875 84.367188 L 61.71875 77.453125 L 63.660156 77.453125 L 63.660156 87.808594 L 61.5625 87.808594 L 57.34375 81.054688 L 57.34375 87.808594 Z M 55.402344 99.449219 L 55.402344 89.09375 L 57.425781 89.09375 L 61.71875 96.007813 L 61.71875 89.09375 L 63.660156 89.09375 L 63.660156 99.449219 L 61.5625 99.449219 L 57.34375 92.695313 L 57.34375 99.449219 Z M 52.164063 16.378906 L 66.867188 16.378906 L 66.867188 63.304688 L 65.347656 61.554688 L 65.347656 17.902344 L 53.6875 17.902344 L 53.6875 48.160156 L 52.164063 46.410156 Z M 66.867188 72.453125 L 66.867188 102.453125 L 52.164063 102.453125 L 52.164063 55.542969 L 53.6875 57.292969 L 53.6875 100.929688 L 65.347656 100.929688 L 65.347656 70.699219 Z M 66.867188 72.453125 "/>
</g>
<g clip-path="url(#clip2)" clip-rule="nonzero">
<path style=" stroke:none;fill-rule:evenodd;fill:rgb(29.417419%,29.417419%,30.200195%);fill-opacity:1;" d="M 459.660156 53.523438 L 459.660156 21.835938 L 463.445313 21.835938 L 478.121094 46.726563 L 478.121094 21.835938 L 481.710938 21.835938 L 481.710938 53.523438 L 477.894531 53.523438 L 463.183594 28.589844 L 463.183594 53.523438 Z M 449.492188 21.835938 L 453.195313 21.835938 L 453.195313 53.523438 L 449.492188 53.523438 Z M 427.007813 53.523438 L 427.007813 21.835938 L 430.714844 21.835938 L 430.714844 49.789063 L 444.453125 49.789063 L 444.453125 53.523438 Z M 402.796875 35.8125 L 410.734375 35.8125 C 413.226563 35.8125 414.988281 35.328125 416.046875 34.34375 C 417.089844 33.359375 417.617188 32.082031 417.617188 30.488281 C 417.617188 27.074219 415.628906 25.367188 411.640625 25.367188 L 402.796875 25.367188 Z M 399.09375 53.523438 L 399.09375 21.835938 L 411.441406 21.835938 C 413.773438 21.835938 415.4375 22.03125 416.429688 22.402344 C 417.421875 22.777344 418.242188 23.285156 418.902344 23.929688 C 419.566406 24.5625 420.144531 25.457031 420.632813 26.574219 C 421.132813 27.707031 421.378906 29.007813 421.378906 30.488281 C 421.378906 35.441406 418.773438 38.324219 413.554688 39.148438 C 414.671875 39.691406 415.65625 40.484375 416.503906 41.523438 C 417.359375 42.5625 418.144531 43.695313 418.839844 44.929688 L 423.714844 53.523438 L 419.03125 53.523438 L 415.316406 46.972656 C 414.398438 45.359375 413.613281 44.058594 412.964844 43.097656 C 412.320313 42.125 411.679688 41.367188 411.054688 40.789063 C 410.421875 40.222656 409.847656 39.863281 409.320313 39.714844 C 408.804688 39.558594 408.046875 39.476563 407.0625 39.476563 L 402.796875 39.476563 L 402.796875 53.523438 Z M 373.074219 53.523438 L 373.074219 21.835938 L 393.269531 21.835938 L 393.269531 25.570313 L 376.777344 25.570313 L 376.777344 35.269531 L 392.253906 35.269531 L 392.253906 39.003906 L 376.777344 39.003906 L 376.777344 49.789063 L 393.925781 49.789063 L 393.925781 53.523438 Z M 350.519531 49.789063 L 357.480469 49.789063 C 358.394531 49.789063 359.203125 49.746094 359.898438 49.644531 C 360.605469 49.542969 361.296875 49.28125 361.980469 48.863281 C 362.65625 48.445313 363.183594 47.84375 363.546875 47.085938 C 363.902344 46.320313 364.085938 45.402344 364.085938 44.339844 C 364.085938 42.621094 363.59375 41.277344 362.617188 40.3125 C 361.640625 39.351563 359.769531 38.867188 356.980469 38.867188 L 350.519531 38.867188 Z M 350.519531 35.136719 L 356.546875 35.136719 C 357.898438 35.136719 359.011719 35.035156 359.878906 34.820313 C 360.734375 34.617188 361.453125 34.140625 362.03125 33.394531 C 362.597656 32.660156 362.886719 31.675781 362.886719 30.429688 C 362.886719 29.152344 362.628906 28.136719 362.121094 27.378906 C 361.601563 26.609375 360.886719 26.125 359.980469 25.898438 C 359.0625 25.683594 357.769531 25.570313 356.074219 25.570313 L 350.519531 25.570313 Z M 346.8125 53.523438 L 346.8125 21.835938 L 357.289063 21.835938 C 360.515625 21.835938 362.855469 22.640625 364.335938 24.234375 C 365.796875 25.828125 366.53125 27.738281 366.53125 29.945313 C 366.53125 32.964844 365.238281 35.203125 362.648438 36.652344 C 366.152344 37.828125 367.90625 40.394531 367.90625 44.339844 C 367.90625 50.457031 364.421875 53.523438 357.464844 53.523438 Z M 346.8125 53.523438 "/>
</g>
<path style=" stroke:none;fill-rule:evenodd;fill:rgb(29.417419%,29.417419%,30.200195%);fill-opacity:1;" d="M 340.183594 46.492188 C 342.128906 46.492188 343.699219 48.066406 343.699219 50.007813 C 343.699219 51.949219 342.128906 53.523438 340.183594 53.523438 C 338.242188 53.523438 336.671875 51.949219 336.671875 50.007813 C 336.671875 48.066406 338.242188 46.492188 340.183594 46.492188 Z M 340.183594 46.492188 "/>
<path style=" stroke:none;fill-rule:evenodd;fill:rgb(0%,0%,0%);fill-opacity:1;" d="M 130.109375 53.523438 L 130.109375 21.839844 L 136.300781 21.839844 L 149.429688 42.996094 L 149.429688 21.839844 L 155.367188 21.839844 L 155.367188 53.523438 L 148.949219 53.523438 L 136.050781 32.867188 L 136.050781 53.523438 Z M 308.296875 53.523438 L 308.296875 21.839844 L 314.480469 21.839844 L 327.609375 42.996094 L 327.609375 21.839844 L 333.550781 21.839844 L 333.550781 53.523438 L 327.132813 53.523438 L 314.230469 32.867188 L 314.230469 53.523438 Z M 278.617188 53.523438 L 278.617188 21.839844 L 284.804688 21.839844 L 297.933594 42.996094 L 297.933594 21.839844 L 303.871094 21.839844 L 303.871094 53.523438 L 297.453125 53.523438 L 284.554688 32.867188 L 284.554688 53.523438 Z M 159.789063 53.523438 L 159.789063 21.839844 L 185.050781 21.839844 L 185.050781 27.199219 L 167.109375 27.199219 L 167.109375 34.1875 L 185.050781 34.1875 L 185.050781 39.546875 L 167.109375 39.546875 L 167.109375 48.164063 L 185.050781 48.164063 L 185.050781 53.523438 Z M 189.265625 21.839844 L 195.652344 21.839844 L 195.652344 38.683594 C 195.652344 41.167969 195.742188 42.984375 195.914063 44.109375 C 196.09375 45.234375 196.703125 46.179688 197.746094 46.949219 C 198.777344 47.71875 200.226563 48.109375 202.085938 48.109375 C 204.425781 48.109375 206.023438 47.5625 206.871094 46.480469 C 207.71875 45.402344 208.148438 42.917969 208.148438 39.039063 L 208.148438 21.839844 L 214.535156 21.839844 L 214.535156 38.214844 C 214.535156 42.035156 214.296875 44.898438 213.820313 46.792969 C 213.347656 48.699219 212.179688 50.292969 210.324219 51.582031 C 208.480469 52.875 205.796875 53.523438 202.285156 53.523438 C 198.855469 53.523438 196.171875 52.976563 194.238281 51.871094 C 192.289063 50.78125 190.976563 49.355469 190.296875 47.59375 C 189.605469 45.835938 189.265625 42.785156 189.265625 38.449219 Z M 219.183594 53.523438 L 219.183594 21.839844 L 224.058594 21.839844 L 231.878906 32.003906 L 239.640625 21.839844 L 244.515625 21.839844 L 244.515625 53.523438 L 239.640625 53.523438 L 239.640625 30.851563 L 231.878906 40.136719 L 224.058594 30.851563 L 224.058594 53.523438 Z M 274.195313 53.523438 L 268.675781 53.523438 L 266.519531 46.332031 L 256.421875 46.332031 L 254.335938 53.523438 L 248.9375 53.523438 L 258.738281 21.839844 L 264.195313 21.839844 Z M 264.921875 40.972656 L 261.402344 29.222656 L 257.984375 40.972656 Z M 264.921875 40.972656 "/>
<path style=" stroke:none;fill-rule:evenodd;fill:rgb(87.889099%,57.617188%,21.166992%);fill-opacity:1;" d="M 130.109375 80.875 L 137.429688 88.9375 L 130.109375 96.996094 Z M 130.109375 80.875 "/>
<path style=" stroke:none;fill-rule:evenodd;fill:rgb(87.889099%,57.617188%,21.166992%);fill-opacity:1;" d="M 139.976563 80.875 L 147.296875 88.9375 L 139.976563 96.996094 Z M 139.976563 80.875 "/>
<g clip-path="url(#clip3)" clip-rule="nonzero">
<path style=" stroke:none;fill-rule:evenodd;fill:rgb(29.417419%,29.417419%,30.200195%);fill-opacity:1;" d="M 130.109375 68.355469 L 481.710938 68.355469 L 481.710938 66.042969 L 130.109375 66.042969 Z M 130.109375 68.355469 "/>
</g>
<g clip-path="url(#clip4)" clip-rule="nonzero">
<path style=" stroke:none;fill-rule:evenodd;fill:rgb(0%,0%,0%);fill-opacity:1;" d="M 169.757813 96.429688 L 169.757813 82.707031 L 164.628906 82.707031 L 164.628906 80.875 L 176.953125 80.875 L 176.953125 82.707031 L 171.824219 82.707031 L 171.824219 96.429688 Z M 179.152344 96.429688 L 179.152344 80.875 L 181.214844 80.875 L 181.214844 87.269531 L 189.308594 87.269531 L 189.308594 80.875 L 191.378906 80.875 L 191.378906 96.429688 L 189.308594 96.429688 L 189.308594 89.101563 L 181.214844 89.101563 L 181.214844 96.429688 Z M 194.84375 96.429688 L 194.84375 80.875 L 206.101563 80.875 L 206.101563 82.707031 L 196.910156 82.707031 L 196.910156 87.46875 L 205.535156 87.46875 L 205.535156 89.300781 L 196.910156 89.300781 L 196.910156 94.597656 L 206.46875 94.597656 L 206.46875 96.429688 Z M 216.613281 96.429688 L 216.613281 80.875 L 219.738281 80.875 L 223.410156 91.90625 L 224.160156 94.199219 L 224.984375 91.710938 L 228.722656 80.875 L 231.46875 80.875 L 231.46875 96.429688 L 229.472656 96.429688 L 229.472656 83.40625 L 224.980469 96.429688 L 223.085938 96.429688 L 218.613281 83.171875 L 218.613281 96.429688 Z M 235.171875 80.875 L 237.230469 80.875 L 237.230469 96.429688 L 235.171875 96.429688 Z M 251.925781 90.96875 L 253.988281 91.488281 C 253.101563 94.957031 250.949219 96.695313 247.535156 96.695313 C 245.03125 96.695313 243.1875 95.914063 242.003906 94.347656 C 240.824219 92.777344 240.234375 90.839844 240.234375 88.53125 C 240.234375 85.90625 240.9375 83.929688 242.347656 82.601563 C 243.757813 81.273438 245.503906 80.609375 247.574219 80.609375 C 250.796875 80.609375 252.847656 82.113281 253.722656 85.117188 L 251.691406 85.605469 C 250.996094 83.453125 249.609375 82.375 247.523438 82.375 C 245.839844 82.375 244.558594 82.917969 243.664063 84 C 242.777344 85.082031 242.335938 86.59375 242.335938 88.53125 C 242.335938 90.773438 242.816406 92.398438 243.777344 93.410156 C 244.738281 94.425781 245.929688 94.929688 247.367188 94.929688 C 249.835938 94.929688 251.347656 93.609375 251.925781 90.96875 Z M 256.59375 96.429688 L 256.59375 80.875 L 263.476563 80.875 C 264.777344 80.875 265.703125 80.96875 266.257813 81.152344 C 266.808594 81.335938 267.269531 81.585938 267.632813 81.902344 C 268.007813 82.214844 268.328125 82.652344 268.601563 83.203125 C 268.878906 83.757813 269.015625 84.394531 269.015625 85.121094 C 269.015625 87.554688 267.5625 88.96875 264.652344 89.375 C 265.277344 89.640625 265.824219 90.03125 266.296875 90.539063 C 266.773438 91.050781 267.214844 91.605469 267.601563 92.210938 L 270.316406 96.429688 L 267.710938 96.429688 L 265.636719 93.214844 C 265.128906 92.421875 264.6875 91.785156 264.324219 91.3125 C 263.964844 90.835938 263.609375 90.460938 263.261719 90.179688 C 262.90625 89.902344 262.589844 89.722656 262.296875 89.652344 C 262.003906 89.574219 261.589844 89.535156 261.035156 89.535156 L 258.660156 89.535156 L 258.660156 96.429688 Z M 258.660156 87.738281 L 263.085938 87.738281 C 264.46875 87.738281 265.453125 87.5 266.046875 87.015625 C 266.628906 86.53125 266.921875 85.90625 266.921875 85.121094 C 266.921875 83.445313 265.808594 82.609375 263.589844 82.609375 L 258.660156 82.609375 Z M 271.621094 88.847656 C 271.621094 87.289063 271.898438 85.886719 272.449219 84.660156 C 273.003906 83.433594 273.839844 82.445313 274.960938 81.699219 C 276.074219 80.949219 277.445313 80.574219 279.074219 80.574219 C 280.15625 80.574219 281.15625 80.769531 282.074219 81.164063 C 282.988281 81.554688 283.777344 82.097656 284.433594 82.796875 C 285.089844 83.5 285.597656 84.351563 285.964844 85.355469 C 286.324219 86.359375 286.507813 87.464844 286.507813 88.667969 C 286.507813 90.339844 286.210938 91.761719 285.601563 92.933594 C 285.003906 94.109375 284.109375 95.027344 282.921875 95.695313 C 281.734375 96.363281 280.445313 96.695313 279.058594 96.695313 C 277.628906 96.695313 276.328125 96.351563 275.171875 95.664063 C 274.007813 94.976563 273.128906 94.015625 272.523438 92.792969 C 271.921875 91.574219 271.621094 90.257813 271.621094 88.847656 Z M 273.71875 88.875 C 273.71875 90.113281 273.953125 91.183594 274.414063 92.09375 C 274.878906 93.011719 275.496094 93.710938 276.265625 94.199219 C 277.046875 94.6875 277.972656 94.929688 279.046875 94.929688 C 280.71875 94.929688 282.027344 94.355469 282.96875 93.199219 C 283.90625 92.039063 284.378906 90.523438 284.378906 88.640625 C 284.378906 87.355469 284.15625 86.234375 283.714844 85.285156 C 283.261719 84.328125 282.652344 83.601563 281.878906 83.097656 C 281.097656 82.589844 280.171875 82.339844 279.085938 82.339844 C 278.214844 82.339844 277.445313 82.484375 276.78125 82.773438 C 276.121094 83.0625 275.554688 83.488281 275.09375 84.066406 C 274.632813 84.644531 274.289063 85.328125 274.0625 86.128906 C 273.839844 86.925781 273.71875 87.84375 273.71875 88.875 Z M 289.132813 96.429688 L 289.132813 80.875 L 295.023438 80.875 C 295.890625 80.875 296.65625 80.921875 297.316406 81.003906 C 297.972656 81.09375 298.589844 81.308594 299.160156 81.652344 C 299.730469 82.003906 300.1875 82.503906 300.535156 83.152344 C 300.886719 83.800781 301.058594 84.539063 301.058594 85.378906 C 301.058594 88.523438 299.105469 90.101563 295.195313 90.101563 L 291.199219 90.101563 L 291.199219 96.429688 Z M 291.199219 88.269531 L 295.234375 88.269531 C 297.695313 88.269531 298.925781 87.324219 298.925781 85.4375 C 298.925781 84.984375 298.863281 84.589844 298.738281 84.25 C 298.613281 83.917969 298.425781 83.628906 298.183594 83.394531 C 297.9375 83.164063 297.632813 82.992188 297.277344 82.878906 C 296.921875 82.761719 296.222656 82.707031 295.203125 82.707031 L 291.199219 82.707031 Z M 303.710938 96.429688 L 303.710938 80.875 L 305.769531 80.875 L 305.769531 87.269531 L 313.863281 87.269531 L 313.863281 80.875 L 315.929688 80.875 L 315.929688 96.429688 L 313.863281 96.429688 L 313.863281 89.101563 L 305.769531 89.101563 L 305.769531 96.429688 Z M 318.730469 88.847656 C 318.730469 87.289063 319.011719 85.886719 319.558594 84.660156 C 320.113281 83.433594 320.953125 82.445313 322.070313 81.699219 C 323.183594 80.949219 324.554688 80.574219 326.1875 80.574219 C 327.269531 80.574219 328.269531 80.769531 329.183594 81.164063 C 330.101563 81.554688 330.890625 82.097656 331.546875 82.796875 C 332.199219 83.5 332.714844 84.351563 333.078125 85.355469 C 333.4375 86.359375 333.621094 87.464844 333.621094 88.667969 C 333.621094 90.339844 333.320313 91.761719 332.714844 92.933594 C 332.117188 94.109375 331.222656 95.027344 330.035156 95.695313 C 328.847656 96.363281 327.558594 96.695313 326.171875 96.695313 C 324.738281 96.695313 323.441406 96.351563 322.28125 95.664063 C 321.117188 94.976563 320.238281 94.015625 319.636719 92.792969 C 319.03125 91.574219 318.730469 90.257813 318.730469 88.847656 Z M 320.835938 88.875 C 320.835938 90.113281 321.0625 91.183594 321.523438 92.09375 C 321.984375 93.011719 322.605469 93.710938 323.378906 94.199219 C 324.15625 94.6875 325.085938 94.929688 326.160156 94.929688 C 327.835938 94.929688 329.140625 94.355469 330.078125 93.199219 C 331.015625 92.039063 331.488281 90.523438 331.488281 88.640625 C 331.488281 87.355469 331.265625 86.234375 330.824219 85.285156 C 330.371094 84.328125 329.761719 83.601563 328.984375 83.097656 C 328.210938 82.589844 327.28125 82.339844 326.191406 82.339844 C 325.320313 82.339844 324.554688 82.484375 323.894531 82.773438 C 323.234375 83.0625 322.671875 83.488281 322.210938 84.066406 C 321.746094 84.644531 321.402344 85.328125 321.175781 86.128906 C 320.945313 86.925781 320.835938 87.84375 320.835938 88.875 Z M 336.246094 96.429688 L 336.246094 80.875 L 338.355469 80.875 L 346.539063 93.09375 L 346.539063 80.875 L 348.535156 80.875 L 348.535156 96.429688 L 346.410156 96.429688 L 338.214844 84.191406 L 338.214844 96.429688 Z M 352.003906 96.429688 L 352.003906 80.875 L 363.261719 80.875 L 363.261719 82.707031 L 354.070313 82.707031 L 354.070313 87.46875 L 362.695313 87.46875 L 362.695313 89.300781 L 354.070313 89.300781 L 354.070313 94.597656 L 363.628906 94.597656 L 363.628906 96.429688 Z M 384.933594 90.96875 L 387.003906 91.488281 C 386.109375 94.957031 383.960938 96.695313 380.546875 96.695313 C 378.039063 96.695313 376.195313 95.914063 375.015625 94.347656 C 373.835938 92.777344 373.242188 90.839844 373.242188 88.53125 C 373.242188 85.90625 373.949219 83.929688 375.359375 82.601563 C 376.769531 81.273438 378.511719 80.609375 380.585938 80.609375 C 383.800781 80.609375 385.855469 82.113281 386.734375 85.117188 L 384.699219 85.605469 C 384.007813 83.453125 382.621094 82.375 380.53125 82.375 C 378.851563 82.375 377.566406 82.917969 376.675781 84 C 375.785156 85.082031 375.34375 86.59375 375.34375 88.53125 C 375.34375 90.773438 375.824219 92.398438 376.785156 93.410156 C 377.746094 94.425781 378.9375 94.929688 380.378906 94.929688 C 382.839844 94.929688 384.355469 93.609375 384.933594 90.96875 Z M 388.9375 88.847656 C 388.9375 87.289063 389.214844 85.886719 389.761719 84.660156 C 390.320313 83.433594 391.15625 82.445313 392.273438 81.699219 C 393.386719 80.949219 394.757813 80.574219 396.390625 80.574219 C 397.472656 80.574219 398.472656 80.769531 399.390625 81.164063 C 400.304688 81.554688 401.09375 82.097656 401.753906 82.796875 C 402.402344 83.5 402.914063 84.351563 403.28125 85.355469 C 403.640625 86.359375 403.824219 87.464844 403.824219 88.667969 C 403.824219 90.339844 403.523438 91.761719 402.921875 92.933594 C 402.320313 94.109375 401.425781 95.027344 400.238281 95.695313 C 399.050781 96.363281 397.761719 96.695313 396.378906 96.695313 C 394.941406 96.695313 393.644531 96.351563 392.484375 95.664063 C 391.324219 94.976563 390.441406 94.015625 389.839844 92.792969 C 389.238281 91.574219 388.9375 90.257813 388.9375 88.847656 Z M 391.035156 88.875 C 391.035156 90.113281 391.269531 91.183594 391.730469 92.09375 C 392.191406 93.011719 392.8125 93.710938 393.585938 94.199219 C 394.359375 94.6875 395.285156 94.929688 396.363281 94.929688 C 398.035156 94.929688 399.34375 94.355469 400.285156 93.199219 C 401.222656 92.039063 401.691406 90.523438 401.691406 88.640625 C 401.691406 87.355469 401.472656 86.234375 401.027344 85.285156 C 400.578125 84.328125 399.964844 83.601563 399.1875 83.097656 C 398.414063 82.589844 397.484375 82.339844 396.398438 82.339844 C 395.527344 82.339844 394.757813 82.484375 394.097656 82.773438 C 393.4375 83.0625 392.871094 83.488281 392.410156 84.066406 C 391.949219 84.644531 391.605469 85.328125 391.378906 86.128906 C 391.152344 86.925781 391.035156 87.84375 391.035156 88.875 Z M 406.382813 96.429688 L 406.382813 80.875 L 409.507813 80.875 L 413.179688 91.90625 L 413.925781 94.199219 L 414.753906 91.710938 L 418.492188 80.875 L 421.238281 80.875 L 421.238281 96.429688 L 419.238281 96.429688 L 419.238281 83.40625 L 414.753906 96.429688 L 412.851563 96.429688 L 408.382813 83.171875 L 408.382813 96.429688 Z M 424.570313 96.429688 L 424.570313 80.875 L 430.460938 80.875 C 431.324219 80.875 432.089844 80.921875 432.753906 81.003906 C 433.40625 81.09375 434.023438 81.308594 434.59375 81.652344 C 435.164063 82.003906 435.621094 82.503906 435.972656 83.152344 C 436.320313 83.800781 436.492188 84.539063 436.492188 85.378906 C 436.492188 88.523438 434.539063 90.101563 430.628906 90.101563 L 426.632813 90.101563 L 426.632813 96.429688 Z M 426.632813 88.269531 L 430.671875 88.269531 C 433.128906 88.269531 434.359375 87.324219 434.359375 85.4375 C 434.359375 84.984375 434.300781 84.589844 434.171875 84.25 C 434.050781 83.917969 433.863281 83.628906 433.617188 83.394531 C 433.371094 83.164063 433.066406 82.992188 432.714844 82.878906 C 432.351563 82.761719 431.65625 82.707031 430.636719 82.707031 L 426.632813 82.707031 Z M 437.378906 96.429688 L 443.355469 80.875 L 445.597656 80.875 L 451.964844 96.429688 L 449.609375 96.429688 L 447.8125 91.699219 L 441.253906 91.699219 L 439.574219 96.429688 Z M 441.835938 90.035156 L 447.191406 90.035156 L 445.539063 85.726563 C 444.992188 84.285156 444.621094 83.210938 444.421875 82.507813 C 444.214844 83.5 443.929688 84.488281 443.5625 85.464844 Z M 453.578125 96.429688 L 453.578125 80.875 L 455.6875 80.875 L 463.871094 93.09375 L 463.871094 80.875 L 465.867188 80.875 L 465.867188 96.429688 L 463.742188 96.429688 L 455.546875 84.191406 L 455.546875 96.429688 Z M 473.671875 96.429688 L 473.671875 89.839844 L 467.671875 80.875 L 470.175781 80.875 L 473.253906 85.5625 C 473.742188 86.292969 474.265625 87.164063 474.835938 88.167969 C 475.4375 87.132813 476.003906 86.222656 476.527344 85.425781 L 479.5625 80.875 L 481.964844 80.875 L 475.734375 89.863281 L 475.734375 96.429688 Z M 473.671875 96.429688 "/>
</g>
</g>
</svg>
